<?xml version="1.0" standalone="no"?>
<svg xmlns="http://www.w3.org/2000/svg" viewBox="0 0 102.024 29" width="102.024" height="29"><g fill="#d80303" color="#d80303" transform="translate(0, 0) scale(0.5576924)"><svg width="52.0" height="52.0" x="0.0" y="0.0" viewBox="0 0 52 52"><path fill="currentColor" fill-rule="evenodd" d="M18.22 33.35s9.278 9.366 25.673 11.515a26.024 26.024 0 0 1-4.652 3.512l-.054.034a25.875 25.875 0 0 1-13.82 3.58 26.054 26.054 0 0 1-4.701-.545c-.167-.035-.333-.078-.5-.116-2.487-6.099-2.5-12.173-2.247-15.465.12-1.574.301-2.515.301-2.515zM15.745 22.9S12.273 35.616 18.61 50.89a26.12 26.12 0 0 1-5.368-2.273l-.055-.03A25.865 25.865 0 0 1 3.175 38.408a26.147 26.147 0 0 1-1.878-4.343c-.054-.163-.099-.328-.15-.492 4.038-5.202 9.293-8.25 12.27-9.678 1.423-.683 2.328-.997 2.328-.997zm35.536-2.96c.445 1.86.695 3.795.716 5.786l.002.064a25.868 25.868 0 0 1-3.81 13.76 26.134 26.134 0 0 1-2.821 3.797c-.115.127-.235.249-.352.374-6.524-.895-11.79-3.921-14.516-5.786-1.302-.892-2.026-1.517-2.026-1.517S41.223 33.065 51.28 19.94zM6.983 8.25c6.525.895 11.792 3.922 14.517 5.786 1.302.89 2.026 1.517 2.026 1.517S10.778 18.904.718 32.028a26.047 26.047 0 0 1-.715-5.784L0 26.181A25.871 25.871 0 0 1 3.81 12.42a26.18 26.18 0 0 1 2.822-3.797c.114-.128.235-.25.351-.375zM33.39 1.07a26.021 26.021 0 0 1 5.368 2.272l.055.03a25.864 25.864 0 0 1 10.012 10.18 25.98 25.98 0 0 1 1.878 4.342c.053.163.098.327.149.492-4.038 5.203-9.292 8.25-12.27 9.678-1.422.682-2.327.997-2.327.997s3.471-12.719-2.865-27.991zM26.134 0l.503.007c1.582.04 3.157.221 4.7.545.167.036.333.079.5.117 2.487 6.098 2.499 12.172 2.247 15.465-.12 1.573-.301 2.515-.301 2.515S24.506 9.283 8.11 7.135a26.1 26.1 0 0 1 4.651-3.513c.019-.01.036-.023.055-.033A25.877 25.877 0 0 1 26.637.009z"></path></svg></g><line x1="41" y1="1" x2="41" y2="28" stroke="#4e1a2e" stroke-linecap="round"></line><path fill="#4e1a2e" fill-rule="nonzero" d="M2.81 16.97L0.10 16.97Q0 16.97 0 16.85L0 16.85L0.05 0.36Q0.05 0.26 0.14 0.26L0.14 0.26L3.07 0.26Q3.17 0.26 3.24 0.36L3.24 0.36L5.42 3.53L7.61 0.36Q7.68 0.26 7.78 0.26L7.78 0.26L10.73 0.26Q10.82 0.26 10.82 0.36L10.82 0.36L10.87 16.85Q10.87 16.97 10.78 16.97L10.78 16.97L8.06 16.97Q7.97 16.97 7.97 16.85L7.97 16.85L7.94 4.61L5.42 8.26L2.93 4.61L2.90 16.85Q2.90 16.97 2.81 16.97L2.81 16.97ZM12.07 16.85L12.07 16.85L15.05 0.36Q15.07 0.26 15.17 0.26L15.17 0.26L18.65 0.26Q18.74 0.26 18.77 0.36L18.77 0.36L21.62 16.85Q21.65 16.97 21.53 16.97L21.53 16.97L18.86 16.97Q18.77 16.97 18.74 16.85L18.74 16.85L18.48 15.10L15.22 15.10L14.95 16.85Q14.93 16.97 14.83 16.97L14.83 16.97L12.17 16.97Q12.07 16.97 12.07 16.85ZM16.78 5.78L15.70 12.53L18 12.53L17.02 5.78L16.87 4.90L16.78 5.78ZM27.10 16.97L24.38 16.97Q24.29 16.97 24.29 16.85L24.29 16.85L24.29 3.17L21.17 3.17Q21.05 3.17 21.05 3.05L21.05 3.05L21.07 0.36Q21.07 0.26 21.17 0.26L21.17 0.26L30.29 0.26Q30.41 0.26 30.41 0.36L30.41 0.36L30.41 3.05Q30.41 3.17 30.31 3.17L30.31 3.17L27.17 3.17L27.19 16.85Q27.19 16.97 27.10 16.97L27.10 16.97ZM34.39 16.97L31.68 16.97Q31.58 16.97 31.58 16.85L31.58 16.85L31.63 0.38Q31.63 0.26 31.73 0.26L31.73 0.26L34.42 0.26Q34.51 0.26 34.51 0.38L34.51 0.38L34.51 6.07L38.28 0.36Q38.35 0.26 38.45 0.26L38.45 0.26L41.21 0.26Q41.30 0.26 41.26 0.36L41.26 0.36L37.10 6.98L41.76 16.87Q41.81 16.97 41.64 16.97L41.64 16.97L38.71 16.97Q38.59 16.97 38.57 16.87L38.57 16.87L35.33 9.82L34.49 11.14L34.49 16.85Q34.49 16.97 34.39 16.97L34.39 16.97ZM46.32 17.21L46.32 17.21Q45.02 17.21 43.96 16.55Q42.89 15.89 42.24 14.80Q41.59 13.70 41.59 12.38L41.59 12.38L41.62 4.78Q41.62 3.46 42.25 2.38Q42.89 1.30 43.97 0.65Q45.05 0 46.32 0L46.32 0Q47.62 0 48.67 0.65Q49.73 1.30 50.36 2.38Q51 3.46 51 4.78L51 4.78L51.02 12.38Q51.02 13.70 50.39 14.80Q49.75 15.89 48.68 16.55Q47.62 17.21 46.32 17.21ZM46.32 14.30L46.32 14.30Q47.04 14.30 47.58 13.72Q48.12 13.13 48.12 12.38L48.12 12.38L48.10 4.78Q48.10 3.98 47.59 3.43Q47.09 2.88 46.32 2.88L46.32 2.88Q45.58 2.88 45.05 3.42Q44.52 3.96 44.52 4.78L44.52 4.78L44.52 12.38Q44.52 13.18 45.05 13.74Q45.58 14.30 46.32 14.30Z" transform="translate(51, 6.016)"></path></svg>